<svg width="24" height="24" viewBox="0 0 24 24" fill="none" xmlns="http://www.w3.org/2000/svg">
<path d="M12 0.75C5.8125 0.75 0.75 5.8125 0.75 12C0.75 18.1875 5.8125 23.25 12 23.25C18.1875 23.25 23.25 18.1875 23.25 12C23.25 5.8125 18.1875 0.75 12 0.75ZM12 3.25C13.9375 3.25 15.75 3.9375 17.25 5L5 17.25C3.9375 15.75 3.25 13.9375 3.25 12C3.25 7.1875 7.1875 3.25 12 3.25ZM12 20.75C10.0625 20.75 8.25 20.0625 6.75 19L19 6.75C20.0625 8.25 20.75 10.0625 20.75 12C20.75 16.8125 16.8125 20.75 12 20.75Z" fill="#192A67"/>
</svg>
