<svg width="21" height="24" viewBox="0 0 21 24" fill="none" xmlns="http://www.w3.org/2000/svg">
<path d="M10.5 0.96875C11.4339 0.968689 12.3324 1.326 13.0113 1.96738C13.6901 2.60876 14.0978 3.48559 14.1506 4.418L14.1562 4.625H20.0625C20.2763 4.62507 20.4821 4.70627 20.6383 4.85222C20.7945 4.99816 20.8895 5.19796 20.904 5.41124C20.9186 5.62452 20.8517 5.83538 20.7168 6.00121C20.5819 6.16704 20.389 6.27549 20.1772 6.30463L20.0625 6.3125H19.167L17.727 20.96C17.6549 21.6902 17.3255 22.3711 16.7977 22.8809C16.27 23.3907 15.5782 23.6964 14.8459 23.7432L14.6479 23.75H6.35212C5.61802 23.75 4.90784 23.4889 4.34851 23.0135C3.78917 22.538 3.41713 21.8791 3.29887 21.1546L3.273 20.9589L1.83188 6.3125H0.9375C0.733608 6.31249 0.536615 6.23865 0.382953 6.10464C0.229291 5.97062 0.129354 5.7855 0.101625 5.5835L0.09375 5.46875C0.0937586 5.26486 0.167598 5.06787 0.301613 4.9142C0.435628 4.76054 0.620752 4.6606 0.82275 4.63287L0.9375 4.625H6.84375C6.84375 3.6553 7.22896 2.72532 7.91464 2.03964C8.60032 1.35396 9.5303 0.96875 10.5 0.96875ZM17.4716 6.3125H3.52725L4.95262 20.7935C4.98419 21.1166 5.12658 21.4189 5.35563 21.6489C5.58468 21.879 5.88628 22.0227 6.20925 22.0557L6.35212 22.0625H14.6479C15.3229 22.0625 15.8955 21.5844 16.026 20.9352L16.0485 20.7935L17.4705 6.3125H17.4716ZM12.4688 9.40625C12.6726 9.40626 12.8696 9.4801 13.0233 9.61411C13.177 9.74813 13.2769 9.93325 13.3046 10.1353L13.3125 10.25V18.125C13.3124 18.3388 13.2312 18.5446 13.0853 18.7008C12.9393 18.857 12.7395 18.952 12.5263 18.9665C12.313 18.9811 12.1021 18.9142 11.9363 18.7793C11.7705 18.6444 11.662 18.4515 11.6329 18.2397L11.625 18.125V10.25C11.625 10.0262 11.7139 9.81161 11.8721 9.65338C12.0304 9.49514 12.245 9.40625 12.4688 9.40625ZM8.53125 9.40625C8.73514 9.40626 8.93213 9.4801 9.0858 9.61411C9.23946 9.74813 9.3394 9.93325 9.36712 10.1353L9.375 10.25V18.125C9.37493 18.3388 9.29373 18.5446 9.14778 18.7008C9.00184 18.857 8.80204 18.952 8.58876 18.9665C8.37548 18.9811 8.16462 18.9142 7.99879 18.7793C7.83296 18.6444 7.72451 18.4515 7.69537 18.2397L7.6875 18.125V10.25C7.6875 10.0262 7.7764 9.81161 7.93463 9.65338C8.09286 9.49514 8.30747 9.40625 8.53125 9.40625ZM10.5 2.65625C10.0059 2.65627 9.52989 2.84207 9.16643 3.17676C8.80298 3.51146 8.57866 3.97059 8.538 4.463L8.53125 4.625H12.4688C12.4688 4.10285 12.2613 3.6021 11.8921 3.23288C11.5229 2.86367 11.0221 2.65625 10.5 2.65625Z" fill="#192A67"/>
</svg>
